<svg width="32" height="32" viewBox="0 0 32 32" fill="none" xmlns="http://www.w3.org/2000/svg">
<path fill-rule="evenodd" clip-rule="evenodd" d="M15.8105 11.085C15.3536 11.0646 14.9301 11.3241 14.7409 11.7406C14.5516 12.1571 14.6347 12.6468 14.9507 12.9776C15.2667 13.3083 15.7521 13.4137 16.1768 13.2437C16.6015 13.0736 16.8801 12.6625 16.8805 12.205V11.085H15.8105ZM25.0605 11C25.0605 6.02944 21.0311 2 16.0605 2C11.09 2 7.06055 6.02944 7.06055 11C7.06054 12.5283 7.45677 14.0305 8.21055 15.36L16.0605 28.06L23.9205 15.36C24.6708 14.0296 25.0636 12.5274 25.0605 11ZM18.0605 12.21C18.0032 13.4373 16.9719 14.3917 15.7438 14.3539C14.5157 14.3161 13.545 13.3002 13.5632 12.0716C13.5815 10.8431 14.5819 9.85634 15.8105 9.855H16.8805V7.56H18.0655V9.85C18.0655 9.85 18.0605 11.56 18.0605 12.21Z" fill="#2E2E2E"/>
</svg>
